<?xml version="1.0" encoding="UTF-8"?>
<svg id="Layer_1" data-name="Layer 1" xmlns="http://www.w3.org/2000/svg" viewBox="0 0 398.76 118.7">
  <path d="M177.11,95.52c-7.98,0-15.12-1.97-21.42-5.92-6.3-4.03-11.21-9.58-14.74-16.63-3.44-7.06-5.17-14.99-5.17-23.81s1.72-16.46,5.17-23.44c3.44-6.97,8.32-12.43,14.62-16.38,6.38-4.03,13.82-6.05,22.3-6.05,6.64,0,12.64,1.3,18.02,3.91,5.38,2.6,9.66,6.09,12.85,10.46,3.19,4.37,5.04,9.07,5.54,14.11h-12.22c-.84-4.54-3.44-8.23-7.81-11.09-4.28-2.94-9.74-4.41-16.38-4.41s-11.59,1.51-15.88,4.54c-4.28,2.94-7.48,6.89-9.58,11.84-2.1,4.96-3.15,10.42-3.15,16.38,0,6.38,1.13,12.1,3.4,17.14,2.27,5.04,5.54,9.03,9.83,11.97,4.37,2.86,9.49,4.28,15.37,4.28,7.48,0,13.23-2.14,17.26-6.43,4.03-4.37,6.43-9.45,7.18-15.25h12.85c-.34,6.47-1.93,12.35-4.79,17.64-2.86,5.21-7.1,9.37-12.73,12.47-5.54,3.11-12.39,4.66-20.54,4.66ZM235.25,5.3v88.2h-12.47V5.3h12.47ZM265.07,118.7h-18.4v-12.47h9.07l5.54-12.73-20.92-63h13.86l14.24,45.36,17.51-45.36h13.73l-34.65,88.2ZM334.33,40.33c-5.63,0-10.04,1.89-13.23,5.67-3.11,3.78-4.66,9.03-4.66,15.75,0,7.06,1.51,12.47,4.54,16.25,3.11,3.78,7.56,5.67,13.36,5.67,5.38,0,9.58-1.97,12.6-5.92,3.11-4.03,4.66-9.37,4.66-16,0-4.03-.8-7.69-2.39-10.96s-3.74-5.84-6.43-7.69c-2.6-1.85-5.42-2.77-8.44-2.77ZM317.45,30.5v5.92c1.18-2.27,3.36-4.16,6.55-5.67,3.19-1.51,7.06-2.27,11.59-2.27,5.88,0,10.92,1.51,15.12,4.54,4.28,3.02,7.52,7.06,9.7,12.1,2.18,5.04,3.28,10.58,3.28,16.63,0,9.83-2.35,17.93-7.06,24.32-4.62,6.3-11.63,9.45-21.04,9.45-4.45,0-8.32-.76-11.59-2.27-3.19-1.6-5.38-3.49-6.55-5.67v31.12h-12.6V30.5h12.6ZM374.94,93.5v-50.53h-8.69v-12.47h8.69V5.3h12.47v25.2h8.69v12.47h-8.69v38.05h11.34v12.47h-23.81Z"/>
  <g>
    <polygon points="84.66 33.46 94.06 24.06 74.95 4.94 70.74 9.15 70.74 19.54 84.66 33.46"/>
    <polygon points="14.34 65.54 4.94 74.94 24.05 94.06 28.26 89.85 28.26 79.46 14.34 65.54"/>
    <polygon points="33.45 14.34 24.05 4.94 4.94 24.05 9.15 28.26 19.54 28.26 33.45 14.34"/>
    <polygon points="65.55 84.66 74.94 94.06 94.06 74.94 89.85 70.74 79.46 70.74 65.55 84.66"/>
    <polygon points="13.29 35.98 0 35.98 0 63.02 5.95 63.02 13.29 55.67 13.29 35.98"/>
    <polygon points="85.71 63.02 99.01 63.02 99.01 35.98 93.06 35.98 85.71 43.33 85.71 63.02"/>
    <polygon points="35.99 85.71 35.99 99 63.02 99 63.02 93.05 55.67 85.71 35.99 85.71"/>
    <polygon points="63.02 13.29 63.02 0 35.99 0 35.99 5.95 43.34 13.29 63.02 13.29"/>
  </g>
</svg>