<svg width="113" height="30" viewBox="0 0 113 30" fill="none" xmlns="http://www.w3.org/2000/svg">
<g clip-path="url(#clip0_1278_79)">
<path d="M59.41 6.10449H56.2617V25.5876H67.5348V22.6259H59.41V6.10449Z" fill="#E5E5E5"/>
<path d="M73.5835 15.8213L68.4348 6.10449H64.8984L71.9574 19.2497V25.5876H75.1057V19.2771L82.2439 6.10449H78.7541L73.5835 15.8213Z" fill="#E5E5E5"/>
<path d="M91.0975 6.10449H83.6641V25.5848H86.8123V18.0062H91.1002C95.0355 18.0062 97.4787 15.8213 97.4787 12.3079V11.8028C97.4787 8.28941 95.0355 6.10449 91.1002 6.10449H91.0975ZM94.3031 11.8028V12.3079C94.3031 14.125 93.2318 15.0473 91.122 15.0473H86.8096V9.06346H91.122C93.2318 9.06346 94.3031 9.98574 94.3031 11.8028Z" fill="#E5E5E5"/>
<path d="M98.582 6.10449V9.06346H104.214V25.5876H107.363V9.06346H112.998V6.10449H98.582Z" fill="#E5E5E5"/>
<path d="M50.9804 17.4269C50.2672 20.3914 47.5644 22.5351 44.5254 22.5351C40.8607 22.5351 37.8791 19.5405 37.8791 15.8596C37.8791 12.1788 40.8607 9.1841 44.5254 9.1841C47.5589 9.1841 50.2508 11.3169 50.975 14.2676H54.2189L54.1806 14.0562C53.3143 9.37899 49.256 5.98633 44.5254 5.98633C39.1034 5.98633 34.6953 10.4138 34.6953 15.8596C34.6953 21.3054 39.1034 25.7329 44.5254 25.7329C49.256 25.7329 53.317 22.3403 54.1779 17.6657L54.2216 17.4297H50.9804V17.4269Z" fill="#E5E5E5"/>
</g>
<g clip-path="url(#clip1_1278_79)">
<path d="M22.5514 19.0052L15.0193 26.529L3.47832 15.0008L15.0193 3.46963L22.5514 10.9935L25.1128 8.62185L17.5134 1.03371C16.1362 -0.341967 13.8994 -0.341967 12.5222 1.03371L1.0368 12.5065C-0.340392 13.8821 -0.340392 16.1165 1.0368 17.4922L12.5222 28.965C13.8994 30.3406 16.1362 30.3406 17.5134 28.965L25.0485 21.4382L22.5485 19.0022L22.5514 19.0052Z" fill="#E5E5E5"/>
</g>
<defs>
<clipPath id="clip0_1278_79">
<rect width="78.3045" height="19.7438" fill="white" transform="translate(34.6953 5.98633)"/>
</clipPath>
<clipPath id="clip1_1278_79">
<rect width="25.1111" height="29.9991" fill="white"/>
</clipPath>
</defs>
</svg>
