<svg width="94" height="34" viewBox="0 0 94 34" fill="none" xmlns="http://www.w3.org/2000/svg">
<path d="M20.5222 14.1101L22.8013 11.8326L18.1678 7.19883L17.1485 8.2182V10.7361L20.5222 14.1101Z" fill="white"/>
<path d="M3.476 21.8899L1.19695 24.1691L5.83042 28.803L6.84971 27.7836V25.2639L3.476 21.8899Z" fill="white"/>
<path d="M8.10947 9.47626L5.83042 7.19704L1.19874 11.8309L2.21803 12.8502H4.73576L8.10947 9.47626Z" fill="white"/>
<path d="M15.8887 26.5237L18.1678 28.803L22.8013 24.1691L21.782 23.1498H19.2624L15.8887 26.5237Z" fill="white"/>
<path d="M3.22297 14.7238H0V21.2762H1.441L3.22297 19.4958V14.7238Z" fill="white"/>
<path d="M20.777 21.2779H24V14.7238H22.559L20.777 16.5059V21.2779Z" fill="white"/>
<path d="M8.72319 26.7768V30H15.2768V28.5589L13.4948 26.7768H8.72319Z" fill="white"/>
<path d="M15.275 9.22321V6H8.72319V7.44111L10.5052 9.22321H15.275Z" fill="white"/>
<path d="M42.024 28.448C40.2507 28.448 38.664 28.0093 37.264 27.132C35.864 26.236 34.772 25.004 33.988 23.436C33.2227 21.868 32.84 20.104 32.84 18.144C32.84 16.2213 33.2227 14.4853 33.988 12.936C34.7533 11.3867 35.836 10.1733 37.236 9.296C38.6547 8.4 40.3067 7.952 42.192 7.952C43.6667 7.952 45.0013 8.24133 46.196 8.82C47.3907 9.39867 48.3427 10.1733 49.052 11.144C49.7613 12.1147 50.172 13.16 50.284 14.28H47.568C47.3813 13.272 46.8027 12.4507 45.832 11.816C44.88 11.1627 43.6667 10.836 42.192 10.836C40.792 10.836 39.616 11.172 38.664 11.844C37.712 12.4973 37.0027 13.3747 36.536 14.476C36.0693 15.5773 35.836 16.7907 35.836 18.116C35.836 19.5347 36.088 20.804 36.592 21.924C37.096 23.044 37.824 23.9307 38.776 24.584C39.7467 25.2187 40.8853 25.536 42.192 25.536C43.8533 25.536 45.132 25.06 46.028 24.108C46.924 23.1373 47.456 22.008 47.624 20.72H50.48C50.4053 22.1573 50.0507 23.464 49.416 24.64C48.7813 25.7973 47.8387 26.7213 46.588 27.412C45.356 28.1027 43.8347 28.448 42.024 28.448ZM55.224 8.4V28H52.452V8.4H55.224ZM62.1302 33.6H58.0422V30.828H60.0582L61.2902 28L56.6422 14H59.7222L62.8862 24.08L66.7782 14H69.8302L62.1302 33.6ZM77.8023 16.184C76.5516 16.184 75.5716 16.604 74.8623 17.444C74.1716 18.284 73.8263 19.4507 73.8263 20.944C73.8263 22.512 74.1623 23.716 74.8343 24.556C75.525 25.396 76.5143 25.816 77.8023 25.816C78.997 25.816 79.9303 25.3773 80.6023 24.5C81.293 23.604 81.6383 22.4187 81.6383 20.944C81.6383 20.048 81.461 19.236 81.1063 18.508C80.7516 17.78 80.2756 17.2107 79.6783 16.8C79.0996 16.3893 78.4743 16.184 77.8023 16.184ZM74.0503 14V15.316C74.3116 14.812 74.797 14.392 75.5063 14.056C76.2156 13.72 77.0743 13.552 78.0823 13.552C79.389 13.552 80.509 13.888 81.4423 14.56C82.3943 15.232 83.113 16.128 83.5983 17.248C84.0836 18.368 84.3263 19.6 84.3263 20.944C84.3263 23.128 83.8036 24.9293 82.7583 26.348C81.7316 27.748 80.173 28.448 78.0823 28.448C77.093 28.448 76.2343 28.28 75.5063 27.944C74.797 27.5893 74.3116 27.1693 74.0503 26.684V33.6H71.2503V14H74.0503ZM87.1068 28V16.772H85.1748V14H87.1068V8.4H89.8788V14H91.8108V16.772H89.8788V25.228H92.3988V28H87.1068Z" fill="white"/>
</svg>
